<?xml version="1.0" encoding="utf-8"?>
<!-- Generator: Adobe Illustrator 24.3.0, SVG Export Plug-In . SVG Version: 6.00 Build 0)  -->
<svg version="1.1" id="Ebene_1" xmlns="http://www.w3.org/2000/svg" xmlns:xlink="http://www.w3.org/1999/xlink" x="0px" y="0px"
	 viewBox="0 0 189.9 155.9" style="enable-background:new 0 0 189.9 155.9;" xml:space="preserve">
<g>
	<g>
		<path d="M95,6.3C74.7,6.3,58.3,22.8,58.3,43c0,20.2,16.4,36.7,36.7,36.7s36.7-16.5,36.7-36.7C131.6,22.8,115.2,6.3,95,6.3
			 M95,83.9C72.4,83.9,54,65.6,54,43C54,20.4,72.4,2.1,95,2.1s40.9,18.4,40.9,40.9C135.9,65.6,117.5,83.9,95,83.9"/>
	</g>
	<polygon points="91.4,70.3 91.4,32.2 74.9,32.2 74.9,39 82.4,39 82.4,70.3 	"/>
	<path d="M86.7,13.8c-3.3,0-6,2.6-6,5.9c0,3.3,2.6,6,5.9,6c3.3,0,6-2.6,6-6C92.6,16.4,89.9,13.8,86.7,13.8"/>
	<polygon points="98.5,70.3 98.5,32.2 115.1,32.2 115.1,39 107.5,39 107.5,70.3 	"/>
	<path d="M103.2,13.8c3.3,0,6,2.6,6,5.9c0,3.3-2.6,6-5.9,6c-3.3,0-6-2.6-6-6C97.4,16.4,100,13.8,103.2,13.8"/>
</g>
<g>
	<path d="M39.5,146.6c-4,0-5.3-2.6-5.3-6v-19.1h10.6v-6.7H34.2v-6.7h-9c0,7,0,29.1,0,32.7c0,4.2,1.6,7.5,3.8,9.7
		c2.3,2.2,5.6,3.3,9.8,3.3c5.1,0,8.4-1.8,10.6-4.2l-4.7-6C43.6,145.2,42,146.6,39.5,146.6"/>
	<path d="M121.1,113.7c-4.9,0-8.2,1.6-10.4,3.8c-2.2-2.2-5.5-3.8-10.4-3.8c-15,0-14.9,12.1-14.9,15v24.1h9v-24.1
		c0-8.5,4.9-8.3,5.9-8.3c1,0,5.9-0.3,5.9,8.3v24.1h0h9h0v-24.1c0-8.5,4.9-8.3,5.9-8.3c1,0,5.9-0.3,5.9,8.3v24.1h9v-24.1
		C136.1,125.9,136.1,113.7,121.1,113.7"/>
	<path d="M176.6,129.4c-4.3-1.4-6-2.5-6-5.2c0-2,1.1-3.8,4.3-3.8c3.2,0,4.5,3.3,5.1,4.8c2.7-1.5,5.3-2.9,6.6-3.6
		c-2.5-6-6.3-7.9-12-7.9c-8,0-11.7,5.5-11.7,10.6c0,6.5,2.9,9.8,11.2,12.2c6,1.8,6.5,4.7,6.2,6.2c-0.3,1.7-1.6,3.6-5.3,3.6
		c-3.6,0-5.8-3.8-6.8-5.4c-1.8,1.1-3.4,2.1-6.4,3.8c2.1,5,6.8,9.1,13.5,9.1c7.9,0,12.9-5.1,12.9-12.1
		C188.3,134,183,131.6,176.6,129.4"/>
	<polygon points="143.2,114.7 143.2,152.8 152.2,152.8 152.2,121.5 159.7,121.5 159.7,114.7 	"/>
	<path d="M147.9,96.3c3.3,0,6,2.6,6,5.9c0,3.3-2.6,6-5.9,6c-3.3,0-6-2.6-6-6C142,98.9,144.6,96.3,147.9,96.3"/>
	<polygon points="1.6,114.7 1.6,121.5 9.1,121.5 9.1,152.8 18.1,152.8 18.1,114.7 	"/>
	<path d="M13.4,96.3c-3.3,0-6,2.6-6,5.9c0,3.3,2.6,6,5.9,6c3.3,0,6-2.6,6-6C19.3,98.9,16.6,96.3,13.4,96.3"/>
	<path d="M59.1,128.7c0.2-7.1,3.3-8.2,6-8.2c2.6,0,5.9,1,6,8.2H59.1z M79.8,135.5v-3.7c0-12.3-4.7-18-14.8-18
		c-9.3,0-14.7,6.6-14.7,18v4c0,11.5,5.8,18.2,15.8,18.2c6.6,0,10.8-3.7,12.7-7.9c-2.2-1.4-4.6-2.8-6.1-3.8c-1,1.7-2.9,4.4-6.7,4.4
		c-5.8,0-7-5.9-7-10.9v-0.2H79.8z"/>
</g>
</svg>
